<svg xmlns="http://www.w3.org/2000/svg" width="32" height="32" fill="none"><path fill="#00B307" d="M31.3 4.3c-3.9 0-9.4.4-12.2 3.2a7 7 0 0 0-1.6 5.4.7.7 0 0 0 1.3.4c1.5-1.8 3.4-3.3 5.7-4.4h.6c.2 0 .4.2.4.4.2.3.1.7-.4 1a17.4 17.4 0 0 0-9.6 11.9c-1-5.9-2.9-9.3-4.7-11.5a13.8 13.8 0 0 0-3.3-3L6.8 7a.7.7 0 0 1 0-1c.2-.3.7-.3 1 0l.4.2.1.1c1 .7 3 2 4.7 5a.7.7 0 0 0 1.4-.3c.4-2 .2-4.8-1.5-6.5-2.9-2.7-8.3-3-12.2-3-.4 0-.7.3-.7.7 0 3.9.3 9.3 3.1 12.1C4.3 15.5 6.1 16 8 16c1.4 0 2.9-.3 4-1 1.4 3.1 2.6 7.7 2.6 14.8a.7.7 0 0 0 1.5 0c0-4 .7-8.7 3.2-12.6a7.1 7.1 0 0 0 5 1.7c1.9 0 3.6-.6 4.7-1.7 2.7-2.8 3-8.2 3-12.1 0-.4-.3-.8-.7-.8Z"/></svg>